<?xml version="1.0" encoding="UTF-8"?>
<svg width="40px" height="40px" viewBox="0 0 40 40" version="1.1" xmlns="http://www.w3.org/2000/svg" xmlns:xlink="http://www.w3.org/1999/xlink">
    <!-- Generator: Sketch 62 (91390) - https://sketch.com -->
    <title>Artboard</title>
    <desc>Created with Sketch.</desc>
    <g id="Artboard" stroke="none" stroke-width="1" fill="none" fill-rule="evenodd">
        <g id="reactor-logo" fill-rule="nonzero">
            <circle id="Oval" fill="#FF5F00" cx="20" cy="20" r="20"></circle>
            <g id="Group" transform="translate(2.000000, 3.600000)" fill="#FFFFFF">
                <circle id="Oval" cx="18" cy="16.2" r="3.19354839"></circle>
                <path d="M34.0258065,13.0645161 C32.9225806,12.1354839 31.3548387,11.3225806 29.4967742,10.683871 C29.1483871,10.5677419 28.7419355,10.4516129 28.3354839,10.3354839 C28.3935484,10.0451613 28.4516129,9.81290323 28.5096774,9.52258065 C29.3806452,5.22580645 28.7419355,1.85806452 26.883871,0.75483871 C25.9548387,0.232258065 24.6774194,0.232258065 23.2258065,0.75483871 C21.8903226,1.27741935 20.3806452,2.20645161 18.9290323,3.48387097 C18.6387097,3.71612903 18.3483871,4.00645161 18.0580645,4.29677419 C17.883871,4.12258065 17.6516129,3.9483871 17.4774194,3.77419355 C14.2258065,0.870967742 10.9741935,-0.290322581 9.05806452,0.812903226 C8.12903226,1.33548387 7.49032258,2.43870968 7.2,4.00645161 C6.96774194,5.4 7.02580645,7.2 7.43225806,9.11612903 C7.49032258,9.52258065 7.60645161,9.87096774 7.72258065,10.2774194 C7.25806452,10.3935484 6.79354839,10.5677419 6.38709677,10.683871 C2.49677419,12.0193548 0.174193548,14.1096774 0.174193548,16.2 C0.174193548,17.3032258 0.812903226,18.4645161 2.03225806,19.4516129 C3.19354839,20.4387097 4.81935484,21.3096774 6.67741935,21.9483871 C6.96774194,22.0645161 7.31612903,22.1806452 7.66451613,22.2387097 C7.5483871,22.6451613 7.49032258,23.1096774 7.37419355,23.516129 C6.61935484,27.5225806 7.25806452,30.6 9.05806452,31.6451613 C9.52258065,31.9354839 10.1032258,32.0516129 10.7419355,32.0516129 C11.3806452,32.0516129 12.0774194,31.9354839 12.8322581,31.6451613 C14.283871,31.1225806 15.7935484,30.1935484 17.3032258,28.8580645 C17.5354839,28.6258065 17.8258065,28.3935484 18.0580645,28.1612903 C18.4064516,28.4516129 18.6967742,28.7419355 19.0451613,29.0322581 C21.3096774,31.0064516 23.516129,32.0516129 25.2580645,32.0516129 C25.8967742,32.0516129 26.4774194,31.9354839 26.9419355,31.6451613 C27.8709677,31.0645161 28.5677419,29.9612903 28.8580645,28.3935484 C29.1483871,26.883871 29.0903226,25.083871 28.683871,23.1096774 C28.6258065,22.8193548 28.5677419,22.4709677 28.4516129,22.1806452 C28.683871,22.1225806 28.916129,22.0645161 29.0903226,21.9483871 C33.2709677,20.5548387 35.8258065,18.3483871 35.8258065,16.1419355 C35.8258065,15.1548387 35.1870968,14.0516129 34.0258065,13.0645161 Z M23.7483871,2.20645161 C24.7935484,1.85806452 25.6064516,1.8 26.1290323,2.09032258 C27.1741935,2.67096774 27.8709677,5.16774194 27.0580645,9.23225806 C27,9.46451613 26.9419355,9.69677419 26.883871,9.92903226 C25.3741935,9.58064516 23.8064516,9.3483871 22.1225806,9.17419355 C21.1354839,7.78064516 20.1483871,6.50322581 19.1032258,5.4 C19.3935484,5.10967742 19.6258065,4.87741935 19.916129,4.64516129 C21.2516129,3.48387097 22.5870968,2.67096774 23.7483871,2.20645161 Z M22.9935484,19.1612903 C22.4129032,20.1483871 21.8903226,21.0774194 21.3096774,21.8903226 C20.2645161,21.9483871 19.1612903,22.0064516 18.0580645,22.0064516 C16.9548387,22.0064516 15.8516129,21.9483871 14.8064516,21.8903226 C14.2258065,21.0193548 13.5870968,20.0903226 13.0645161,19.1032258 C12.483871,18.1741935 12.0193548,17.1870968 11.5548387,16.2 C12.0193548,15.2129032 12.5419355,14.283871 13.0645161,13.3548387 L13.0645161,13.3548387 C13.6451613,12.4258065 14.2258065,11.4967742 14.8064516,10.5677419 C15.8516129,10.5096774 16.9548387,10.4516129 18.0580645,10.4516129 C19.1612903,10.4516129 20.2645161,10.5096774 21.3096774,10.5677419 C21.8903226,11.4387097 22.4709677,12.3677419 23.0516129,13.2967742 C23.6322581,14.283871 24.1548387,15.2129032 24.6193548,16.1419355 C24.0387097,17.1870968 23.5741935,18.1741935 22.9935484,19.1612903 Z M25.316129,18 C25.7806452,19.1032258 26.1870968,20.1483871 26.5354839,21.1354839 C25.4903226,21.3677419 24.3870968,21.5419355 23.2258065,21.716129 C23.5741935,21.1354839 23.9806452,20.4967742 24.3290323,19.916129 C24.6774194,19.2774194 25.0258065,18.6387097 25.316129,18 Z M18.0580645,26.0709677 C17.3612903,25.316129 16.6064516,24.4451613 15.9096774,23.516129 C16.6064516,23.516129 17.3032258,23.5741935 18,23.5741935 C18.7548387,23.5741935 19.4516129,23.5741935 20.1483871,23.516129 C19.4516129,24.4451613 18.7548387,25.316129 18.0580645,26.0709677 Z M12.8322581,21.716129 C11.6709677,21.6 10.5677419,21.4258065 9.52258065,21.1935484 C9.81290323,20.1483871 10.2193548,19.1032258 10.683871,18.0580645 C11.0322581,18.6967742 11.3225806,19.2774194 11.6709677,19.916129 C12.0774194,20.5548387 12.4258065,21.1354839 12.8322581,21.716129 Z M11.7290323,12.6 C11.3806452,13.2387097 11.0322581,13.8193548 10.7419355,14.4580645 C10.2774194,13.4129032 9.92903226,12.3677419 9.58064516,11.3806452 C10.6258065,11.1483871 11.6709677,10.9741935 12.8322581,10.8 C12.4258065,11.3806452 12.0774194,12.0193548 11.7290323,12.6 Z M18,6.50322581 C18.6967742,7.25806452 19.3935484,8.12903226 20.0903226,9.05806452 C19.3935484,9 18.6967742,9 17.9419355,9 C17.2451613,9 16.5483871,9 15.8516129,9.05806452 C16.6064516,8.12903226 17.3032258,7.25806452 18,6.50322581 Z M24.2709677,12.6 C23.9225806,11.9612903 23.5741935,11.3806452 23.1677419,10.8 C24.3290323,10.916129 25.3741935,11.1483871 26.4193548,11.3806452 C26.1290323,12.3677419 25.7225806,13.4129032 25.2580645,14.4580645 C25.0258065,13.8774194 24.6774194,13.2387097 24.2709677,12.6 Z M8.88387097,8.82580645 C8.53548387,7.08387097 8.47741935,5.51612903 8.70967742,4.29677419 C8.88387097,3.2516129 9.29032258,2.49677419 9.81290323,2.1483871 C10.8580645,1.56774194 13.3548387,2.1483871 16.4322581,4.93548387 C16.6064516,5.10967742 16.7806452,5.28387097 16.9548387,5.45806452 C15.9096774,6.56129032 14.9225806,7.83870968 13.9354839,9.23225806 C12.2516129,9.40645161 10.6258065,9.63870968 9.17419355,9.98709677 C9.05806452,9.52258065 9,9.17419355 8.88387097,8.82580645 Z M7.2,20.5548387 C3.42580645,19.2774194 1.68387097,17.4193548 1.68387097,16.2 C1.68387097,15.0387097 3.30967742,13.3548387 6.8516129,12.1354839 C7.25806452,12.0193548 7.66451613,11.8451613 8.07096774,11.7290323 C8.53548387,13.1806452 9.11612903,14.6903226 9.81290323,16.2580645 C9.11612903,17.8258065 8.47741935,19.3354839 8.07096774,20.8451613 C7.78064516,20.7290323 7.49032258,20.6709677 7.2,20.5548387 Z M10.7419355,30.6 C10.3354839,30.6 10.0451613,30.5419355 9.81290323,30.3677419 C8.82580645,29.7870968 8.12903226,27.5806452 8.88387097,23.8645161 C8.94193548,23.4580645 9.05806452,23.1096774 9.11612903,22.7032258 C10.5677419,23.0516129 12.1935484,23.283871 13.9354839,23.4 C14.9225806,24.7935484 15.9677419,26.0709677 17.0129032,27.1741935 C16.7806452,27.4064516 16.5483871,27.5806452 16.316129,27.8129032 C14.0516129,29.7870968 12.0193548,30.6 10.7419355,30.6 Z M27.1741935,23.4580645 C27.9290323,27.3483871 27.1741935,29.7870968 26.1870968,30.3677419 C25.2,30.9483871 22.9354839,30.4258065 20.0903226,27.9290323 C19.8,27.6967742 19.5096774,27.4064516 19.2193548,27.116129 C20.2064516,26.0129032 21.2516129,24.7354839 22.2387097,23.3419355 C23.9806452,23.1677419 25.6064516,22.9354839 27.0580645,22.5870968 C27.0580645,22.8774194 27.116129,23.1677419 27.1741935,23.4580645 Z M28.6258065,20.5548387 C28.4516129,20.6129032 28.2193548,20.6709677 28.0451613,20.7290323 C27.5806452,19.3354839 27,17.7677419 26.2451613,16.2 C26.9419355,14.6903226 27.5225806,13.1806452 27.9870968,11.7290323 C28.3354839,11.8451613 28.683871,11.9612903 29.0322581,12.0774194 C30.716129,12.6580645 32.1096774,13.4129032 33.0387097,14.1677419 C33.8516129,14.8645161 34.316129,15.5612903 34.316129,16.2 C34.316129,17.4193548 32.516129,19.2774194 28.6258065,20.5548387 Z" id="Shape"></path>
            </g>
        </g>
    </g>
</svg>